<svg width="801" height="196" viewBox="0 0 801 196" fill="none" xmlns="http://www.w3.org/2000/svg">
<path d="M721.094 197L661.744 65.7175H648.889V60.2474L710.701 60.2474V65.7175H697.846L741.881 163.632L775.795 65.7175H757.47V60.2474L800.137 60.2474V65.7175H781.812L730.94 211.769C726.564 224.077 713.163 251.701 697.299 251.701C673.778 251.701 671.316 219.974 695.658 219.974C704.137 219.974 707.693 222.983 713.983 222.983C719.18 222.983 723.282 217.786 725.47 211.222L730.12 197H721.094Z" fill="#C4A07C" fill-opacity="0.3"/>
<path d="M564.596 65.7175V60.2474H568.425C593.587 60.2474 606.169 43.8371 608.63 17.0336H614.1V60.2474L650.203 60.2474V65.7175L614.1 65.7175V159.256C614.1 178.128 617.109 190.436 632.425 190.436C642.545 190.436 649.93 186.333 659.229 174.846L662.784 178.128C655.673 190.162 643.639 200.009 624.494 200.009C590.579 200.009 581.28 180.863 581.28 151.325V65.7175H564.596Z" fill="#C4A07C" fill-opacity="0.3"/>
<path d="M453.94 55.5978V158.983C453.94 177.855 462.418 188.248 479.923 188.248C491.683 188.248 504.538 181.957 515.205 172.384C515.205 169.649 514.931 166.367 514.931 163.085L515.205 65.7175H496.606V60.2474C505.906 60.2474 529.7 60.2474 545.017 55.5978H547.752V170.47C547.752 182.231 547.752 191.53 560.06 191.53H565.53V197C559.513 197.547 545.837 197.82 539.82 197.82C523.136 197.82 517.666 193.171 515.752 178.949C503.718 188.521 482.658 199.735 464.333 199.735C430.418 199.735 421.119 180.59 421.119 151.051L421.392 65.7175H402.794V60.2474C412.093 60.2474 435.888 60.2474 451.204 55.5978H453.94Z" fill="#C4A07C" fill-opacity="0.3"/>
<path d="M268.738 164.726C268.738 111.393 356.26 144.76 356.26 94.9825C356.26 73.9226 343.131 65.7175 331.918 65.7175C322.345 65.7175 311.405 69.8201 311.405 81.0338C311.405 86.5039 315.781 91.1535 315.781 97.4441C315.781 107.564 308.67 112.213 301.012 112.213C293.08 112.213 284.875 107.017 284.875 96.6236C284.875 75.0167 321.251 57.5123 345.867 57.5123C370.756 57.5123 389.627 68.179 389.901 94.4355C390.174 128.35 358.721 126.709 334.926 129.718C316.875 131.906 301.285 134.641 301.285 152.419C301.285 165.82 309.217 174.846 323.439 174.846C355.986 174.573 361.73 150.778 380.328 150.778C384.978 150.778 389.08 152.419 389.08 157.889V170.47C389.08 182.231 389.08 191.53 401.388 191.53H406.858V197C400.841 197.547 387.166 197.82 381.149 197.82C361.456 197.82 356.807 191.53 356.26 169.649C343.132 178.949 328.636 200.009 304.841 200.009C284.054 200.009 268.738 185.513 268.738 164.726Z" fill="#C4A07C" fill-opacity="0.3"/>
<path d="M260.386 154.88L263.394 156.248C253.274 184.419 226.197 199.735 202.676 199.735C118.983 199.735 114.334 57.5123 204.59 57.5123C234.676 57.5123 262.574 69.8201 262.847 97.1706L170.129 97.1706C163.838 130.265 181.89 175.393 225.103 175.393C239.052 175.393 252.454 168.555 260.386 154.88ZM171.496 91.7005L231.667 91.7005C230.3 75.0167 224.009 62.9824 204.864 62.9824C187.36 62.9824 176.146 75.2902 171.496 91.7005Z" fill="#C4A07C" fill-opacity="0.3"/>
<path d="M-7.85466 197L-7.85466 11.0165L-26.1795 11.0165V5.54643C-16.8803 5.54643 6.91462 5.54643 22.2309 0.896851L24.966 0.896851L24.966 78.0253C44.6583 64.6235 59.1541 57.5124 73.3764 57.5124C149.958 57.5124 143.941 199.735 59.4276 199.735C48.4874 199.735 34.5386 193.171 24.966 185.513L-7.85466 197ZM25.2395 84.0424L25.2395 178.402C32.6241 184.966 41.9233 190.436 52.3165 190.436C107.018 190.436 106.744 75.2903 51.496 75.2903C41.9233 75.2903 32.8976 79.1193 25.2395 84.0424Z" fill="#C4A07C" fill-opacity="0.3"/>
</svg>
