<svg width="40" height="39" viewBox="0 0 40 39" fill="none" xmlns="http://www.w3.org/2000/svg">
<path d="M39.5034 19.5034C39.5034 8.74834 30.755 0 19.9999 0C9.24483 0 0.49649 8.74834 0.49649 19.5034C0.49649 22.654 1.26535 25.7812 2.72342 28.5518L1.41537 37.6963L9.37878 35.8608C12.541 37.919 16.2074 39.0043 20.0001 39.0043C30.7552 39.0066 39.5034 30.2585 39.5034 19.5034ZM9.40926 15.9333C8.42473 11.0059 11.1791 9.33213 12.9138 8.77403C13.6287 8.54664 14.414 8.91234 14.7141 9.61322L16.4722 13.7178C16.8145 14.5148 16.6222 15.4572 15.9917 16.0573L14.6953 17.2997C16.0526 21.77 20.9658 24.3509 21.8546 24.7824L23.1626 23.486C23.7276 22.9211 24.5785 22.7289 25.3357 22.9938L29.8013 24.5479C30.4483 24.7753 30.8702 25.4129 30.7976 26.0717C30.5819 28.0525 29.1825 29.1612 28.0502 29.7496C27.347 30.1106 26.557 30.2958 25.753 30.2958C25.4412 30.2958 25.1342 30.2654 24.8223 30.2115C11.683 27.8579 9.42607 16.0527 9.40926 15.9333Z" fill="white"/>
</svg>
